# File created by Blade
# Date/Time:  Thu Jan 22 16:00:44 2015
# Frame Rate: 120.000 fps
#------------------------------------------------------
:FULLY-SPECIFIED
:DEGREES
2413
root 2.295986 37.215892 6.342809 -0.557545 -7.456199 1.837576
RightUpLeg 8.303177 2.215025 -4.283850
RightLeg -5.859545 -0.000000 0.000000
RightFoot -8.320436 -6.993047 17.487562
RightToeBase 13.976762 -0.000000 -0.000000
LeftUpLeg 7.410725 8.649498 3.880472
LeftLeg -2.698604 -0.000000 0.000000
LeftFoot -5.726285 7.740521 -19.499340
LeftToeBase 7.942188 -0.000000 -0.000000
Spine 5.817119 -7.614073 -5.264693
RightShoulder 0.434076 -18.592355 -22.639401
RightArm 14.226482 6.712598 38.733537
RightForeArm 2.239353 -0.000000 29.761887
RightHand 8.417967 0.000000 4.113322
RightHandThumb1 -24.326973 -0.000000 -32.862282
LeftShoulder -27.197224 34.699889 4.445586
LeftArm 38.730386 -26.642925 -47.859890
LeftForeArm 30.398388 -0.000000 23.806291
LeftHand -15.393969 -0.000000 -4.365489
LeftHandThumb1 -26.253704 0.000000 33.147579
Head 19.171228 -21.486641 1.664168
2414
root 2.293466 37.218615 6.337361 -0.411987 -7.507103 1.822885
RightUpLeg 8.142917 2.199574 -4.277764
RightLeg -5.864400 -0.000000 0.000000
RightFoot -8.272452 -6.944256 17.530125
RightToeBase 13.982872 -0.000000 -0.000000
LeftUpLeg 7.265840 8.690382 3.872991
LeftLeg -2.700990 -0.000000 0.000000
LeftFoot -5.723099 7.778351 -19.506587
LeftToeBase 7.927690 -0.000000 -0.000000
Spine 5.573022 -7.402481 -5.074506
RightShoulder 0.374737 -18.213030 -22.805866
RightArm 13.922921 7.371735 38.570117
RightForeArm 2.308411 -0.000000 28.982852
RightHand 8.085700 -0.000000 4.350609
RightHandThumb1 -24.326973 -0.000000 -32.862282
LeftShoulder -26.931932 34.542827 4.704108
LeftArm 38.721811 -26.981527 -47.724183
LeftForeArm 30.423250 -0.000000 23.434536
LeftHand -15.317239 -0.000000 -4.713650
LeftHandThumb1 -26.253704 0.000000 33.147579
Head 18.600229 -20.304665 2.106113
2415
root 2.291437 37.221737 6.330681 -0.257063 -7.538628 1.814545
RightUpLeg 7.972519 2.177036 -4.277349
RightLeg -5.867637 -0.000000 0.000000
RightFoot -8.213663 -6.893165 17.536592
RightToeBase 13.928575 -0.000000 -0.000000
LeftUpLeg 7.109157 8.687160 3.853642
LeftLeg -2.707030 -0.000000 0.000000
LeftFoot -5.700209 7.835500 -19.473378
LeftToeBase 7.854677 -0.000000 -0.000000
Spine 5.322798 -7.254937 -4.912348
RightShoulder 0.355548 -17.846761 -22.950640
RightArm 13.623448 8.041015 38.348130
RightForeArm 2.210454 -0.000000 28.213788
RightHand 7.845412 0.000000 4.804244
RightHandThumb1 -24.326973 -0.000000 -32.862282
LeftShoulder -26.738196 34.419676 4.935036
LeftArm 38.757495 -27.372400 -47.672436
LeftForeArm 30.557663 -0.000000 23.079336
LeftHand -15.184896 -0.000000 -4.876539
LeftHandThumb1 -26.253704 0.000000 33.147579
Head 18.098202 -19.080767 2.511934
2416
root 2.284167 37.225141 6.327758 -0.130940 -7.586431 1.787803
RightUpLeg 7.845593 2.205227 -4.243230
RightLeg -5.883572 -0.000000 0.000000
RightFoot -8.170755 -6.896338 17.570428
RightToeBase 13.959568 -0.000000 -0.000000
LeftUpLeg 6.998505 8.739312 3.872053
LeftLeg -2.723349 -0.000000 0.000000
LeftFoot -5.675767 7.851497 -19.494711
LeftToeBase 7.870457 -0.000000 -0.000000
Spine 5.093245 -7.085588 -4.733638
RightShoulder 0.345063 -17.525006 -23.126041
RightArm 13.374196 8.808906 38.200879
RightForeArm 2.059186 -0.000000 27.457365
RightHand 7.601914 -0.000000 5.253509
RightHandThumb1 -24.326973 -0.000000 -32.862282
LeftShoulder -26.535520 34.324803 5.126958
LeftArm 38.773704 -27.774470 -47.562067
LeftForeArm 30.678288 0.000000 22.740918
LeftHand -15.155257 -0.000000 -4.931974
LeftHandThumb1 -26.253704 0.000000 33.147579
Head 17.689868 -17.848775 2.819851
2417
root 2.280081 37.227180 6.329526 -0.036733 -7.632697 1.781503
RightUpLeg 7.756307 2.220929 -4.240852
RightLeg -5.903334 -0.000000 0.000000
RightFoot -8.135597 -6.870380 17.599711
RightToeBase 13.912846 -0.000000 -0.000000
LeftUpLeg 6.933273 8.782169 3.869567
LeftLeg -2.759043 -0.000000 0.000000
LeftFoot -5.648039 7.870784 -19.506588
LeftToeBase 7.866098 -0.000000 -0.000000
Spine 4.901950 -6.931188 -4.579156
RightShoulder 0.326028 -17.169015 -23.316827
RightArm 13.103449 9.515834 38.059004
RightForeArm 2.073804 -0.000000 26.791328
RightHand 7.203895 -0.000000 5.682748
RightHandThumb1 -24.326973 -0.000000 -32.862282
LeftShoulder -26.398700 34.184676 5.305302
LeftArm 38.832575 -28.138878 -47.468719
LeftForeArm 30.891928 -0.000000 22.329110
LeftHand -14.918345 -0.000000 -4.935338
LeftHandThumb1 -26.253704 0.000000 33.147579
Head 17.259106 -16.521767 3.104916
2418
root 2.275234 37.229339 6.330186 0.060684 -7.663235 1.772412
RightUpLeg 7.671439 2.239384 -4.232333
RightLeg -5.931934 -0.000000 0.000000
RightFoot -8.098841 -6.855121 17.635072
RightToeBase 13.967922 -0.000000 -0.000000
LeftUpLeg 6.854741 8.811790 3.869942
LeftLeg -2.783334 -0.000000 0.000000
LeftFoot -5.656448 7.894678 -19.568291
LeftToeBase 7.987357 -0.000000 -0.000000
Spine 4.715613 -6.781740 -4.423506
RightShoulder 0.281731 -16.802406 -23.488530
RightArm 12.791964 10.139196 37.840985
RightForeArm 2.014469 0.000000 26.189582
RightHand 6.995221 -0.000000 6.105112
RightHandThumb1 -24.326973 -0.000000 -32.862282
LeftShoulder -26.206149 33.947429 5.546990
LeftArm 38.813081 -28.511807 -47.381742
LeftForeArm 31.023027 -0.000000 21.960008
LeftHand -14.776183 -0.000000 -5.219909
LeftHandThumb1 -26.253704 0.000000 33.147579
Head 16.908499 -15.283026 3.316524
